<svg viewBox="0 0 79 30" xmlns="http://www.w3.org/2000/svg" xmlns:xlink="http://www.w3.org/1999/xlink" width="79.000000" height="30.000000" fill="none">
	<rect id="svg 7" width="79.000000" height="30.000000" x="0.000000" y="0.000000" />
	<path id="Форма 72" d="M11.36 0.619995L2 25.06L7.03 25.06L8.95 19.96L18.89 19.96L20.82 25.06L25.81 25.06L16.5 0.619995L11.35 0.619995L11.36 0.619995ZM10.68 15.47L13.95 6.87L17.2 15.47L10.68 15.47L10.68 15.47ZM31.82 18.76L27.76 7.89L22.96 7.89L29.5 25.06L34.25 25.06L40.69 7.9L35.89 7.9L31.83 18.77L31.82 18.76ZM46.72 7.89L42.15 7.89L42.15 25.06L46.71 25.06L46.71 7.9L46.72 7.89ZM44.42 6.65C45.0243 6.68315 45.6262 6.551 46.161 6.26776C46.6958 5.98451 47.1433 5.56088 47.4554 5.0424C47.7675 4.52391 47.9324 3.93017 47.9324 3.325C47.9324 2.71982 47.7675 2.12608 47.4554 1.60759C47.1433 1.08911 46.6958 0.665478 46.161 0.382235C45.6262 0.0989925 45.0243 -0.0331548 44.42 -4.17233e-06C43.7427 0.0371522 43.0929 0.280254 42.5576 0.696777C42.0222 1.1133 41.6268 1.68338 41.4243 2.33074C41.2218 2.97811 41.2218 3.67188 41.4243 4.31925C41.6268 4.96661 42.0222 5.53669 42.5576 5.95321C43.0929 6.36974 43.7427 6.61284 44.42 6.65ZM55.76 3.31L51.2 3.31L51.2 7.86L48.53 7.86L48.53 12L51.2 12L51.2 19.3C51.2 23.43 53.48 25.22 56.69 25.22C57.7715 25.2323 58.8438 25.0212 59.84 24.6L59.84 20.34C59.3 20.54 58.73 20.64 58.14 20.65C56.75 20.65 55.74 20.11 55.74 18.25L55.74 12L59.84 12L59.84 7.9L55.74 7.9L55.74 3.31L55.76 3.31ZM69.46 7.58C67.6989 7.57818 65.9769 8.09886 64.5119 9.07613C63.0469 10.0534 61.9047 11.4433 61.23 13.07C60.7843 14.1481 60.555 15.3034 60.555 16.47C60.555 17.6366 60.7843 18.7919 61.23 19.87C61.6739 20.9507 62.3262 21.9335 63.1498 22.7622C63.9734 23.5909 64.952 24.2494 66.03 24.7C67.1109 25.1487 68.2697 25.3797 69.44 25.38C71.1889 25.3631 72.8941 24.8313 74.3425 23.851C75.791 22.8707 76.9184 21.4853 77.5842 19.868C78.2499 18.2506 78.4243 16.473 78.0856 14.7571C77.747 13.0412 76.9103 11.4631 75.68 10.22C74.8638 9.39503 73.8942 8.73764 72.8257 8.28486C71.7572 7.83207 70.6104 7.59262 69.45 7.58L69.46 7.58ZM69.46 20.82C68.6028 20.8224 67.7641 20.5703 67.0503 20.0957C66.3364 19.6211 65.7795 18.9452 65.4501 18.1538C65.1208 17.3623 65.0337 16.491 65.2 15.65C65.3652 14.8086 65.7765 14.0353 66.3817 13.4279C66.987 12.8205 67.7589 12.4065 68.5997 12.2384C69.4405 12.0702 70.3122 12.1555 71.1045 12.4833C71.8968 12.8112 72.5739 13.3669 73.05 14.08C73.5267 14.7933 73.7808 15.6321 73.78 16.49C73.78 17.2494 73.5798 17.9955 73.1996 18.6529C72.8193 19.3103 72.2725 19.8559 71.6142 20.2346C70.9559 20.6133 70.2094 20.8118 69.45 20.81L69.45 20.82L69.46 20.82Z" fill="rgb(0,0,0)" fill-rule="nonzero" />
</svg>
